<?xml version="1.0" encoding="utf-8"?>
<!-- Generator: Adobe Illustrator 16.0.0, SVG Export Plug-In . SVG Version: 6.00 Build 0)  -->
<!DOCTYPE svg PUBLIC "-//W3C//DTD SVG 1.1//EN" "http://www.w3.org/Graphics/SVG/1.1/DTD/svg11.dtd">
<svg version="1.1" id="Layer_1" xmlns="http://www.w3.org/2000/svg" xmlns:xlink="http://www.w3.org/1999/xlink" x="0px" y="0px"
	 width="643px" height="232px" viewBox="0 0 643 232" enable-background="new 0 0 643 232" xml:space="preserve">
<g>
	<path fill="#C02026" d="M8.964,144.955c0.384-0.48,1.056-0.528,1.488-0.145c2.496,2.016,6.673,4.369,11.041,4.319
		c2.928,0,5.568-0.862,7.393-2.208c1.872-1.345,2.88-3.12,2.88-4.992c0-1.921-0.912-3.359-2.736-4.607
		c-1.824-1.2-4.512-2.112-7.776-2.736h-0.096c-3.12-0.576-5.856-1.439-7.921-2.832c-2.064-1.345-3.456-3.361-3.456-5.857
		c0-2.543,1.392-4.752,3.504-6.287c2.112-1.536,4.944-2.448,8.112-2.448c4.417,0,7.729,2.16,10.369,3.889
		c0.48,0.337,0.624,0.96,0.288,1.488c-0.288,0.479-0.96,0.623-1.44,0.287c-2.64-1.728-5.521-3.552-9.217-3.552
		c-2.736,0-5.184,0.814-6.864,2.017c-1.68,1.248-2.64,2.88-2.64,4.606c0.048,1.682,0.816,2.93,2.496,4.082
		c1.68,1.15,4.176,1.968,7.201,2.543h0.096c3.36,0.625,6.337,1.584,8.545,3.072c2.208,1.44,3.696,3.648,3.696,6.336
		c0,2.689-1.536,5.09-3.792,6.721c-2.256,1.634-5.28,2.642-8.641,2.642c-5.136-0.048-9.601-2.642-12.385-4.849
		C8.676,146.059,8.627,145.387,8.964,144.955z"/>
	<path fill="#C02026" d="M44.516,118.793c0-0.625,0.528-1.152,1.152-1.152h0.096H62.95c0.672,0,1.152,0.527,1.152,1.152
		c0,0.672-0.48,1.199-1.152,1.199H46.868v13.297h14.065c0.624,0,1.152,0.529,1.152,1.201c0,0.623-0.528,1.15-1.152,1.15H46.868
		v13.25H62.95c0.672,0,1.152,0.527,1.152,1.199c0,0.624-0.48,1.152-1.152,1.152H45.812h-0.144h-0.096
		c-0.576-0.049-1.056-0.528-1.056-1.152V118.793z"/>
	<path fill="#C02026" d="M95.023,150.1c0,0.623-0.528,1.151-1.2,1.151c-0.624,0-1.152-0.528-1.152-1.151l-0.027-6.44
		c0-2.447-1.248-3.984-2.736-5.089c-1.488-1.057-3.264-1.584-3.888-1.68c-0.144-0.049-0.192-0.097-0.24-0.097h-8.161v13.297
		c0,0.624-0.528,1.152-1.2,1.152c-0.624,0-1.152-0.528-1.152-1.152v-31.298c0-0.576,0.48-1.104,1.056-1.152h0.096h0.144h9.36
		c5.281,0,9.553,4.271,9.553,9.602c0,3.841-2.256,7.152-5.521,8.688c0.144,0.096,0.288,0.146,0.48,0.24
		c2.208,1.248,4.512,3.696,4.512,7.488L95.023,150.1z M85.923,119.992h-8.305v14.498h8.065h0.432
		c3.888-0.098,7.057-3.312,7.057-7.249C93.172,123.209,89.907,119.992,85.923,119.992z"/>
	<path fill="#C02026" d="M107.938,118.793c0-0.625,0.528-1.152,1.152-1.152h0.096h17.186c0.672,0,1.152,0.527,1.152,1.152
		c0,0.672-0.48,1.199-1.152,1.199H110.29v13.297h14.065c0.624,0,1.152,0.529,1.152,1.201c0,0.623-0.528,1.15-1.152,1.15H110.29
		v13.25h16.082c0.672,0,1.152,0.527,1.152,1.199c0,0.624-0.48,1.152-1.152,1.152h-17.138h-0.144h-0.096
		c-0.576-0.049-1.056-0.528-1.056-1.152V118.793z"/>
	<path fill="#C02026" d="M140.85,122.584v27.507c0,0.624-0.528,1.152-1.151,1.152c-0.625,0-1.152-0.528-1.152-1.152v-30.817
		c-0.145-0.479,0-0.961,0.432-1.297c0.528-0.336,1.297-0.24,1.633,0.287l20.354,28.228V119.13c0-0.625,0.527-1.151,1.152-1.151
		c0.672,0,1.199,0.526,1.199,1.151v30.962c0,0.624-0.527,1.152-1.199,1.152c-0.385,0-0.673-0.145-0.912-0.434
		c-0.049-0.047-0.145-0.096-0.192-0.19L140.85,122.584z"/>
	<path fill="#C02026" d="M181.37,118.793c0-0.625,0.527-1.152,1.151-1.152c0.673,0,1.2,0.527,1.2,1.152v31.298
		c0,0.624-0.527,1.152-1.2,1.152c-0.624,0-1.151-0.528-1.151-1.152V118.793z"/>
	<path fill="#C02026" d="M206.362,119.992h-10.129c-0.625,0-1.152-0.527-1.152-1.199c0-0.625,0.527-1.152,1.152-1.152h22.562
		c0.624,0,1.152,0.527,1.152,1.152c0,0.672-0.528,1.199-1.152,1.199h-10.129v30.099c0,0.624-0.528,1.152-1.151,1.152
		c-0.625,0-1.152-0.528-1.152-1.152L206.362,119.992L206.362,119.992z"/>
	<path fill="#C02026" d="M239.993,135.113l-11.281-15.408c-0.336-0.529-0.239-1.297,0.24-1.633c0.528-0.432,1.297-0.336,1.633,0.191
		l10.513,14.448l10.561-14.448c0.336-0.527,1.104-0.623,1.633-0.191c0.527,0.336,0.624,1.104,0.239,1.633l-11.232,15.312v15.072
		c0,0.624-0.48,1.152-1.152,1.152c-0.624,0-1.152-0.528-1.152-1.152v-14.977H239.993z"/>
</g>
<rect x="386.5" y="123.167" fill="none" width="306.5" height="15.333"/>
<g enable-background="new    ">
	<path fill="#C02026" d="M395.701,132.06c0,0.018,0,0.036,0,0.054v4.268c0,0.522-0.433,0.954-0.955,0.954
		c-0.504,0-0.972-0.432-0.972-0.954v-4.268c0-0.018,0-0.036,0-0.054c-0.019-0.99-0.847-1.801-1.854-1.801
		c-0.99,0-1.818,0.828-1.818,1.854v4.268c0,0.036-0.019,0.09-0.019,0.126c0,0.018,0,0.054,0,0.054
		c-0.019,0.036-0.019,0.072-0.054,0.108c0,0.018,0,0.054,0,0.09c-0.162,0.324-0.522,0.576-0.9,0.576
		c-0.072,0-0.126-0.018-0.18-0.018c-0.433-0.108-0.775-0.469-0.775-0.937v-4.268c0-0.018,0-0.018,0-0.018v-2.791
		c0-0.559,0.433-0.973,0.955-0.973c0.378,0,0.721,0.198,0.864,0.54c0.576-0.342,1.242-0.54,1.927-0.54
		c1.134,0,2.143,0.469,2.826,1.242c0.666-0.773,1.693-1.242,2.827-1.242c2.071,0,3.745,1.692,3.745,3.781v4.268
		c0,0.522-0.432,0.954-0.954,0.954s-0.973-0.432-0.973-0.954v-4.268c0-1.026-0.828-1.854-1.818-1.854
		C396.547,130.259,395.736,131.069,395.701,132.06z"/>
	<path fill="#C02026" d="M412.908,132.852v3.529c0,0.522-0.432,0.954-0.954,0.954c-0.468,0-0.828-0.342-0.937-0.774
		c-0.684,0.486-1.494,0.774-2.395,0.774c-1.225,0-2.287-0.504-3.061-1.314c-0.774-0.828-1.225-1.944-1.225-3.169
		c0-1.242,0.45-2.358,1.225-3.169c0.773-0.828,1.836-1.351,3.061-1.351c0.9,0,1.711,0.307,2.395,0.792
		c0.108-0.449,0.469-0.792,0.937-0.792c0.522,0,0.954,0.433,0.954,0.973V132.852z M411,132.852c0-0.756-0.27-1.404-0.702-1.854
		c-0.433-0.486-1.044-0.738-1.675-0.738c-0.648,0-1.26,0.252-1.674,0.738c-0.433,0.45-0.685,1.099-0.685,1.854
		c0,0.738,0.252,1.387,0.685,1.854c0.414,0.45,1.025,0.702,1.674,0.702c0.631,0,1.242-0.252,1.675-0.702
		C410.73,134.238,411,133.59,411,132.852z"/>
	<path fill="#C02026" d="M416.002,134.76c0.324-0.432,0.955-0.485,1.351-0.144c0.468,0.396,1.278,0.811,1.98,0.792
		c0.486,0,0.937-0.162,1.225-0.342c0.252-0.216,0.324-0.396,0.324-0.54c0-0.09-0.019-0.126-0.054-0.181
		c-0.019-0.054-0.091-0.126-0.234-0.216c-0.252-0.18-0.793-0.378-1.44-0.504h-0.019c-0.558-0.108-1.098-0.252-1.566-0.469
		c-0.486-0.233-0.918-0.558-1.242-1.044c-0.198-0.324-0.307-0.72-0.307-1.134c0-0.829,0.469-1.531,1.062-1.981
		c0.631-0.432,1.387-0.666,2.215-0.666c1.242,0,2.125,0.595,2.701,0.99c0.432,0.288,0.559,0.883,0.288,1.333
		c-0.288,0.432-0.882,0.558-1.333,0.252c-0.576-0.378-1.08-0.666-1.656-0.666c-0.449,0-0.846,0.144-1.08,0.324
		c-0.234,0.161-0.288,0.323-0.288,0.414c0,0.071,0,0.09,0.036,0.144c0.018,0.036,0.072,0.108,0.197,0.18
		c0.234,0.162,0.703,0.324,1.314,0.433l0.019,0.018h0.019c0.594,0.108,1.152,0.271,1.674,0.522c0.486,0.216,0.973,0.559,1.278,1.062
		c0.216,0.36,0.343,0.774,0.343,1.188c0,0.882-0.486,1.62-1.135,2.088c-0.648,0.45-1.459,0.721-2.341,0.721
		c-1.404-0.018-2.484-0.666-3.205-1.242C415.732,135.769,415.678,135.156,416.002,134.76z"/>
	<path fill="#C02026" d="M424.678,134.76c0.324-0.432,0.955-0.485,1.351-0.144c0.468,0.396,1.278,0.811,1.98,0.792
		c0.486,0,0.937-0.162,1.225-0.342c0.252-0.216,0.324-0.396,0.324-0.54c0-0.09-0.019-0.126-0.054-0.181
		c-0.019-0.054-0.091-0.126-0.234-0.216c-0.252-0.18-0.793-0.378-1.44-0.504h-0.019c-0.558-0.108-1.098-0.252-1.566-0.469
		c-0.486-0.233-0.918-0.558-1.242-1.044c-0.198-0.324-0.307-0.72-0.307-1.134c0-0.829,0.469-1.531,1.062-1.981
		c0.631-0.432,1.387-0.666,2.215-0.666c1.242,0,2.125,0.595,2.701,0.99c0.432,0.288,0.559,0.883,0.288,1.333
		c-0.288,0.432-0.882,0.558-1.333,0.252c-0.576-0.378-1.08-0.666-1.656-0.666c-0.449,0-0.846,0.144-1.08,0.324
		c-0.234,0.161-0.288,0.323-0.288,0.414c0,0.071,0,0.09,0.036,0.144c0.018,0.036,0.072,0.108,0.197,0.18
		c0.234,0.162,0.703,0.324,1.314,0.433l0.019,0.018h0.019c0.594,0.108,1.152,0.271,1.674,0.522c0.486,0.216,0.973,0.559,1.278,1.062
		c0.216,0.36,0.343,0.774,0.343,1.188c0,0.882-0.486,1.62-1.135,2.088c-0.648,0.45-1.459,0.721-2.341,0.721
		c-1.404-0.018-2.484-0.666-3.205-1.242C424.408,135.769,424.354,135.156,424.678,134.76z"/>
	<path fill="#C02026" d="M441.582,132.852v3.529c0,0.522-0.432,0.954-0.954,0.954c-0.468,0-0.828-0.342-0.937-0.774
		c-0.684,0.486-1.494,0.774-2.395,0.774c-1.225,0-2.287-0.504-3.061-1.314c-0.774-0.828-1.225-1.944-1.225-3.169
		c0-1.242,0.45-2.358,1.225-3.169c0.773-0.828,1.836-1.351,3.061-1.351c0.9,0,1.711,0.307,2.395,0.792
		c0.108-0.449,0.469-0.792,0.937-0.792c0.522,0,0.954,0.433,0.954,0.973V132.852z M439.674,132.852c0-0.756-0.27-1.404-0.702-1.854
		c-0.433-0.486-1.044-0.738-1.675-0.738c-0.648,0-1.26,0.252-1.674,0.738c-0.433,0.45-0.685,1.099-0.685,1.854
		c0,0.738,0.252,1.387,0.685,1.854c0.414,0.45,1.025,0.702,1.674,0.702c0.631,0,1.242-0.252,1.675-0.702
		C439.404,134.238,439.674,133.59,439.674,132.852z"/>
	<path fill="#C02026" d="M453.786,132.888v3.349c0,2.359-1.927,4.321-4.321,4.321c-0.666,0-1.332-0.162-1.891-0.45
		c-0.469-0.216-0.685-0.81-0.432-1.296c0.233-0.486,0.791-0.666,1.296-0.45c0.306,0.162,0.647,0.252,1.026,0.252
		c1.17,0,2.125-0.828,2.358-1.927c-0.647,0.45-1.477,0.721-2.358,0.721c-1.188,0-2.287-0.522-3.061-1.369
		c-0.775-0.792-1.261-1.908-1.261-3.168c0-1.243,0.485-2.359,1.261-3.205c0.773-0.811,1.872-1.333,3.061-1.333
		c0.936,0,1.764,0.288,2.412,0.757c0.09-0.433,0.486-0.757,0.955-0.757c0.539,0,0.954,0.433,0.954,0.954v3.584V132.888z
		 M451.859,132.87c0-0.721-0.288-1.405-0.684-1.837c-0.469-0.504-1.027-0.774-1.711-0.774c-0.631,0-1.225,0.271-1.656,0.774
		c-0.433,0.432-0.721,1.116-0.721,1.837c0,0.756,0.288,1.439,0.721,1.854c0.432,0.485,1.025,0.737,1.656,0.737
		c0.684,0,1.242-0.252,1.711-0.737C451.571,134.31,451.859,133.626,451.859,132.87z"/>
	<path fill="#C02026" d="M456.987,132.834c0.019-2.449,1.927-4.502,4.394-4.502c2.34,0,4.195,1.747,4.339,4.178
		c0,0.018,0,0.054,0,0.09s0,0.126-0.019,0.162c-0.053,0.432-0.432,0.72-0.936,0.72h-5.726c0.09,0.414,0.288,0.883,0.612,1.188
		c0.378,0.433,1.098,0.757,1.729,0.811c0.648,0.054,1.422-0.108,1.872-0.45c0.378-0.396,1.116-0.342,1.351-0.054
		c0.234,0.252,0.414,0.792,0,1.17c-0.883,0.811-1.945,1.188-3.223,1.188C458.914,137.317,457.006,135.282,456.987,132.834z
		 M458.949,131.951h5.096c-0.18-0.72-1.098-1.782-2.664-1.908C459.85,130.115,459.094,131.213,458.949,131.951z"/>
</g>
<g enable-background="new    ">
	<path fill="#C02026" d="M482.621,130.778c-0.168,0.694-0.326,1.239-0.467,1.626s-0.43,0.888-0.852,1.512l0.387,0.299
		c0.123,0.105,0.264,0.211,0.412,0.316c0.15,0.105,0.309,0.211,0.475,0.299c0.256,0.132,0.457,0.211,0.633,0.255l-0.342,1.714
		c-0.246-0.035-0.492-0.105-0.738-0.211c-0.316-0.114-0.607-0.272-0.871-0.466c-0.096-0.07-0.131-0.088-0.088-0.053
		c0.045,0.035,0.035,0.018-0.043-0.044c-0.369-0.272-0.668-0.519-0.879-0.756c-0.432,0.439-0.783,0.738-1.072,0.905
		c-0.291,0.167-0.721,0.334-1.283,0.492c-0.625,0.176-1.188,0.264-1.688,0.264c-0.537,0-1.012-0.105-1.434-0.308
		c-0.447-0.202-0.816-0.501-1.098-0.879c-0.299-0.387-0.492-0.817-0.58-1.283c-0.088-0.457-0.088-0.967,0.025-1.538h-0.008
		c0.148-0.686,0.43-1.257,0.844-1.705c0.412-0.448,0.834-0.861,1.273-1.239l0.053-0.044c-0.008,0.009,0.035-0.026,0.15-0.114
		c-0.035,0.026,0,0.009,0.088-0.062l0.43-0.334l-0.201-0.413c-0.133-0.272-0.238-0.642-0.299-1.107
		c-0.062-0.448-0.062-0.835-0.01-1.178c0.08-0.422,0.238-0.809,0.467-1.16c0.201-0.29,0.465-0.58,0.791-0.87
		c0.369-0.325,0.809-0.598,1.309-0.817c0.492-0.211,0.914-0.316,1.275-0.316c0.359,0,0.703,0.07,1.027,0.202
		c0.309,0.132,0.59,0.325,0.844,0.58c0.238,0.255,0.422,0.545,0.555,0.888c0.07,0.193,0.123,0.378,0.158,0.554l-1.74,0.378h-0.01
		c-0.078-0.176-0.166-0.316-0.264-0.431c-0.113-0.123-0.254-0.22-0.412-0.281s-0.334-0.097-0.51-0.097
		c-0.387,0-0.738,0.114-1.055,0.334c-0.678,0.483-0.941,1.046-0.801,1.688c0.062,0.29,0.193,0.686,0.422,1.195
		s0.414,0.888,0.555,1.143c0.229,0.422,0.51,0.888,0.861,1.397s0.676,0.958,0.984,1.327l0.404,0.492
		c0.254-0.281,0.43-0.554,0.518-0.835s0.193-0.694,0.326-1.239l0.018-0.053L482.621,130.778z M478.473,134.874
		c0.246-0.123,0.518-0.352,0.816-0.703c-0.078-0.088-0.184-0.193-0.316-0.334c-0.131-0.141-0.236-0.255-0.316-0.343
		c-0.457-0.51-0.816-0.976-1.08-1.406s-0.555-0.967-0.889-1.617l-0.395,0.272l-0.062,0.035c-0.324,0.22-0.65,0.492-0.984,0.8
		s-0.545,0.773-0.65,1.389c-0.061,0.299-0.043,0.606,0.035,0.914c0.07,0.308,0.203,0.58,0.379,0.809
		c0.166,0.211,0.404,0.36,0.711,0.457c0.193,0.062,0.492,0.097,0.906,0.114c0.412,0.018,0.721-0.009,0.932-0.07
		C477.918,135.103,478.227,134.997,478.473,134.874z"/>
</g>
<text transform="matrix(1 0 0 1 483.165 137.335)" fill="#C02026" font-family="'LemonMilk'" font-size="18"> </text>
<g enable-background="new    ">
	<path fill="#C02026" d="M498.27,136.362c0,0.522-0.433,0.973-0.973,0.973c-0.486,0-0.865-0.342-0.955-0.774
		c-0.684,0.469-1.548,0.774-2.448,0.774c-2.431,0-4.376-2.053-4.376-4.483c0-2.467,1.945-4.52,4.376-4.52
		c0.882,0,1.747,0.288,2.413,0.757v-3.386c0-0.521,0.432-0.972,0.99-0.972c0.54,0,0.973,0.45,0.973,0.972v7.131c0,0,0,0,0,0.018
		V136.362z M493.894,130.295c-0.647,0-1.242,0.271-1.692,0.738c-0.45,0.45-0.721,1.099-0.721,1.818c0,0.685,0.271,1.332,0.721,1.782
		c0.45,0.469,1.045,0.738,1.692,0.738c0.667,0,1.243-0.27,1.692-0.738c0.45-0.45,0.721-1.098,0.721-1.782
		c0-0.72-0.271-1.368-0.721-1.818C495.137,130.565,494.561,130.295,493.894,130.295z"/>
	<path fill="#C02026" d="M509.609,132.852v3.529c0,0.522-0.434,0.954-0.955,0.954c-0.469,0-0.828-0.342-0.936-0.774
		c-0.686,0.486-1.495,0.774-2.396,0.774c-1.224,0-2.286-0.504-3.062-1.314c-0.773-0.828-1.224-1.944-1.224-3.169
		c0-1.242,0.45-2.358,1.224-3.169c0.775-0.828,1.838-1.351,3.062-1.351c0.9,0,1.71,0.307,2.396,0.792
		c0.107-0.449,0.467-0.792,0.936-0.792c0.521,0,0.955,0.433,0.955,0.973V132.852z M507.7,132.852c0-0.756-0.271-1.404-0.702-1.854
		c-0.432-0.486-1.045-0.738-1.675-0.738c-0.647,0-1.261,0.252-1.675,0.738c-0.432,0.45-0.684,1.099-0.684,1.854
		c0,0.738,0.252,1.387,0.684,1.854c0.414,0.45,1.027,0.702,1.675,0.702c0.63,0,1.243-0.252,1.675-0.702
		C507.43,134.238,507.7,133.59,507.7,132.852z"/>
	<path fill="#C02026" d="M520.48,129.286v4.25v2.557c0,2.412-1.908,4.303-4.304,4.303c-0.647,0-1.314-0.18-1.854-0.45
		c-0.504-0.216-0.684-0.773-0.469-1.278c0.234-0.432,0.847-0.63,1.279-0.396c0.342,0.162,0.684,0.252,1.044,0.252
		c1.062-0.019,1.962-0.702,2.251-1.639c-0.504,0.288-1.117,0.433-1.711,0.433c-2.07,0-3.764-1.711-3.764-3.781v-4.25
		c0-0.54,0.451-0.954,0.938-0.954c0.558,0,0.953,0.414,0.953,0.954v4.25c0,1.044,0.848,1.836,1.873,1.836
		c1.026,0,1.855-0.792,1.855-1.836v-4.25c0-0.54,0.396-0.954,0.936-0.954C520.029,128.332,520.48,128.746,520.48,129.286z"/>
	<path fill="#C02026" d="M529.243,134.76c0.324-0.432,0.954-0.485,1.351-0.144c0.469,0.396,1.278,0.811,1.98,0.792
		c0.486,0,0.937-0.162,1.225-0.342c0.252-0.216,0.324-0.396,0.324-0.54c0-0.09-0.018-0.126-0.055-0.181
		c-0.018-0.054-0.09-0.126-0.234-0.216c-0.252-0.18-0.791-0.378-1.439-0.504h-0.018c-0.559-0.108-1.1-0.252-1.566-0.469
		c-0.486-0.233-0.919-0.558-1.243-1.044c-0.198-0.324-0.306-0.72-0.306-1.134c0-0.829,0.468-1.531,1.062-1.981
		c0.629-0.432,1.386-0.666,2.215-0.666c1.242,0,2.124,0.595,2.7,0.99c0.433,0.288,0.558,0.883,0.288,1.333
		c-0.288,0.432-0.883,0.558-1.332,0.252c-0.576-0.378-1.08-0.666-1.656-0.666c-0.451,0-0.848,0.144-1.081,0.324
		c-0.233,0.161-0.288,0.323-0.288,0.414c0,0.071,0,0.09,0.036,0.144c0.019,0.036,0.071,0.108,0.198,0.18
		c0.234,0.162,0.701,0.324,1.314,0.433l0.018,0.018h0.018c0.595,0.108,1.152,0.271,1.675,0.522c0.486,0.216,0.973,0.559,1.278,1.062
		c0.217,0.36,0.342,0.774,0.342,1.188c0,0.882-0.486,1.62-1.134,2.088c-0.647,0.45-1.458,0.721-2.341,0.721
		c-1.404-0.018-2.484-0.666-3.205-1.242C528.973,135.769,528.92,135.156,529.243,134.76z"/>
	<path fill="#C02026" d="M538.531,139.748v-6.878c0,0,0,0,0-0.019v-3.565c0-0.521,0.432-0.954,0.955-0.954
		c0.504,0,0.918,0.343,0.99,0.738c0.666-0.432,1.529-0.738,2.448-0.738c2.395,0,4.357,2.053,4.357,4.52s-1.963,4.466-4.357,4.466
		c-0.9,0-1.765-0.271-2.413-0.738v3.169c0,0.504-0.449,0.972-1.025,0.972C538.963,140.72,538.531,140.252,538.531,139.748z
		 M540.512,132.852c0,0.702,0.234,1.387,0.703,1.801c0.449,0.504,1.043,0.756,1.71,0.756c0.612,0,1.224-0.252,1.692-0.756
		c0.414-0.414,0.702-1.099,0.702-1.801s-0.288-1.351-0.702-1.818c-0.469-0.486-1.08-0.738-1.692-0.738
		c-0.667,0-1.261,0.252-1.71,0.738C540.746,131.501,540.512,132.149,540.512,132.852z"/>
	<path fill="#C02026" d="M558.027,132.852v3.529c0,0.522-0.432,0.954-0.954,0.954c-0.468,0-0.828-0.342-0.937-0.774
		c-0.684,0.486-1.494,0.774-2.395,0.774c-1.225,0-2.287-0.504-3.061-1.314c-0.774-0.828-1.225-1.944-1.225-3.169
		c0-1.242,0.45-2.358,1.225-3.169c0.773-0.828,1.836-1.351,3.061-1.351c0.9,0,1.711,0.307,2.395,0.792
		c0.108-0.449,0.469-0.792,0.937-0.792c0.522,0,0.954,0.433,0.954,0.973V132.852z M556.119,132.852c0-0.756-0.27-1.404-0.702-1.854
		c-0.433-0.486-1.044-0.738-1.675-0.738c-0.648,0-1.26,0.252-1.674,0.738c-0.433,0.45-0.685,1.099-0.685,1.854
		c0,0.738,0.252,1.387,0.685,1.854c0.414,0.45,1.025,0.702,1.674,0.702c0.631,0,1.242-0.252,1.675-0.702
		C555.85,134.238,556.119,133.59,556.119,132.852z"/>
	<path fill="#C02026" d="M566.521,134.76c0.324-0.432,0.954-0.485,1.351-0.144c0.469,0.396,1.278,0.811,1.98,0.792
		c0.486,0,0.937-0.162,1.225-0.342c0.252-0.216,0.324-0.396,0.324-0.54c0-0.09-0.018-0.126-0.055-0.181
		c-0.018-0.054-0.09-0.126-0.234-0.216c-0.252-0.18-0.791-0.378-1.439-0.504h-0.018c-0.559-0.108-1.1-0.252-1.566-0.469
		c-0.486-0.233-0.919-0.558-1.243-1.044c-0.198-0.324-0.306-0.72-0.306-1.134c0-0.829,0.468-1.531,1.062-1.981
		c0.629-0.432,1.386-0.666,2.215-0.666c1.242,0,2.124,0.595,2.7,0.99c0.433,0.288,0.558,0.883,0.288,1.333
		c-0.288,0.432-0.883,0.558-1.332,0.252c-0.576-0.378-1.08-0.666-1.656-0.666c-0.451,0-0.848,0.144-1.081,0.324
		c-0.233,0.161-0.288,0.323-0.288,0.414c0,0.071,0,0.09,0.036,0.144c0.019,0.036,0.071,0.108,0.198,0.18
		c0.234,0.162,0.701,0.324,1.314,0.433l0.018,0.018h0.018c0.595,0.108,1.152,0.271,1.675,0.522c0.486,0.216,0.973,0.559,1.278,1.062
		c0.217,0.36,0.342,0.774,0.342,1.188c0,0.882-0.486,1.62-1.134,2.088c-0.647,0.45-1.458,0.721-2.341,0.721
		c-1.404-0.018-2.484-0.666-3.205-1.242C566.25,135.769,566.197,135.156,566.521,134.76z"/>
	<path fill="#C02026" d="M575.179,132.834c0.019-2.449,1.927-4.502,4.394-4.502c2.34,0,4.195,1.747,4.339,4.178
		c0,0.018,0,0.054,0,0.09s0,0.126-0.019,0.162c-0.053,0.432-0.432,0.72-0.936,0.72h-5.727c0.091,0.414,0.289,0.883,0.613,1.188
		c0.378,0.433,1.098,0.757,1.729,0.811c0.648,0.054,1.422-0.108,1.872-0.45c0.378-0.396,1.116-0.342,1.351-0.054
		c0.234,0.252,0.414,0.792,0,1.17c-0.883,0.811-1.945,1.188-3.223,1.188C577.105,137.317,575.197,135.282,575.179,132.834z
		 M577.141,131.951h5.096c-0.18-0.72-1.098-1.782-2.664-1.908C578.041,130.115,577.285,131.213,577.141,131.951z"/>
	<path fill="#C02026" d="M591.938,129.286c0,0.505-0.414,0.955-0.954,0.955c-0.414,0-0.774,0.107-1.08,0.342
		c-0.343,0.216-0.613,0.522-0.828,0.864c-0.433,0.576-0.648,1.261-0.738,1.513v3.421c0,0.522-0.451,0.954-0.99,0.954
		c-0.523,0-0.955-0.432-0.955-0.954v-7.095c0-0.521,0.432-0.936,0.955-0.936c0.539,0,0.99,0.414,0.99,0.936v0.127
		c0.107-0.127,0.252-0.271,0.377-0.36c0.595-0.396,1.369-0.721,2.27-0.702C591.524,128.351,591.938,128.765,591.938,129.286z"/>
	<path fill="#C02026" d="M601.406,129.772l-2.953,6.986c-0.018,0.054-0.053,0.108-0.071,0.126c0,0.019-0.019,0.019-0.019,0.019
		c-0.035,0.035-0.071,0.09-0.107,0.126c0,0.018-0.018,0.018-0.018,0.018c-0.037,0.054-0.072,0.072-0.108,0.108
		c0,0-0.019,0-0.019,0.018c-0.035,0.036-0.072,0.072-0.125,0.09c0,0,0,0-0.037,0c0,0,0,0,0,0.019c-0.054,0-0.107,0.018-0.144,0.036
		c-0.019,0-0.019,0-0.036,0c-0.072,0.018-0.126,0.018-0.18,0.018c-0.036,0-0.09,0-0.162-0.018c-0.018,0-0.018,0-0.036,0
		c-0.054-0.019-0.091-0.036-0.144-0.036c0-0.019,0-0.019,0-0.019c-0.037,0-0.037,0-0.037,0c-0.053-0.018-0.09-0.054-0.162-0.09
		c0-0.018-0.018-0.018-0.018-0.018c-0.035-0.036-0.072-0.055-0.107-0.108c-0.019,0-0.019,0-0.037-0.018
		c-0.018-0.036-0.053-0.091-0.09-0.126c-0.018,0-0.018,0-0.018-0.019c-0.036-0.018-0.055-0.072-0.072-0.126l-2.916-6.986
		c-0.217-0.486,0.018-1.008,0.521-1.225c0.432-0.216,0.99,0.036,1.207,0.522l2.07,4.897l2.088-4.897
		c0.199-0.486,0.738-0.738,1.207-0.522C601.389,128.765,601.623,129.286,601.406,129.772z"/>
	<path fill="#C02026" d="M606.732,126.082c0,0.54-0.414,0.99-0.973,0.99c-0.539,0-0.972-0.45-0.972-0.99v-0.379
		c0-0.54,0.433-0.972,0.972-0.972c0.559,0,0.973,0.432,0.973,0.972V126.082z M606.732,129.341v7.021
		c0,0.541-0.414,0.973-0.973,0.973c-0.539,0-0.972-0.432-0.972-0.973v-7.021c0-0.576,0.433-0.99,0.972-0.99
		C606.318,128.351,606.732,128.765,606.732,129.341z"/>
	<path fill="#C02026" d="M609.197,132.852c0-2.503,2.089-4.501,4.574-4.52c1.08,0,2.088,0.396,2.862,0.99
		c0.414,0.324,0.486,0.937,0.198,1.333c-0.36,0.432-0.937,0.504-1.351,0.18c-0.468-0.342-1.044-0.576-1.71-0.576
		c-1.459,0-2.666,1.206-2.666,2.593s1.207,2.575,2.666,2.575c0.648,0,1.242-0.234,1.71-0.576c0.396-0.307,0.99-0.234,1.351,0.197
		c0.288,0.396,0.216,0.973-0.198,1.333c-0.774,0.558-1.782,0.954-2.862,0.954C611.286,137.335,609.197,135.318,609.197,132.852z"/>
	<path fill="#C02026" d="M619.206,132.834c0.019-2.449,1.927-4.502,4.394-4.502c2.34,0,4.195,1.747,4.339,4.178
		c0,0.018,0,0.054,0,0.09s0,0.126-0.019,0.162c-0.053,0.432-0.432,0.72-0.936,0.72h-5.727c0.091,0.414,0.289,0.883,0.613,1.188
		c0.378,0.433,1.098,0.757,1.729,0.811c0.648,0.054,1.422-0.108,1.872-0.45c0.378-0.396,1.116-0.342,1.351-0.054
		c0.234,0.252,0.414,0.792,0,1.17c-0.883,0.811-1.945,1.188-3.223,1.188C621.133,137.317,619.225,135.282,619.206,132.834z
		 M621.168,131.951h5.096c-0.18-0.72-1.098-1.782-2.664-1.908C622.068,130.115,621.312,131.213,621.168,131.951z"/>
	<path fill="#C02026" d="M630.365,134.76c0.324-0.432,0.955-0.485,1.352-0.144c0.468,0.396,1.277,0.811,1.98,0.792
		c0.486,0,0.936-0.162,1.225-0.342c0.252-0.216,0.324-0.396,0.324-0.54c0-0.09-0.019-0.126-0.055-0.181
		c-0.018-0.054-0.09-0.126-0.234-0.216c-0.252-0.18-0.792-0.378-1.439-0.504h-0.019c-0.558-0.108-1.099-0.252-1.567-0.469
		c-0.485-0.233-0.918-0.558-1.242-1.044c-0.197-0.324-0.306-0.72-0.306-1.134c0-0.829,0.468-1.531,1.062-1.981
		c0.63-0.432,1.386-0.666,2.214-0.666c1.243,0,2.125,0.595,2.701,0.99c0.433,0.288,0.559,0.883,0.289,1.333
		c-0.289,0.432-0.883,0.558-1.333,0.252c-0.576-0.378-1.081-0.666-1.657-0.666c-0.449,0-0.846,0.144-1.08,0.324
		c-0.233,0.161-0.287,0.323-0.287,0.414c0,0.071,0,0.09,0.035,0.144c0.019,0.036,0.072,0.108,0.198,0.18
		c0.234,0.162,0.702,0.324,1.314,0.433l0.019,0.018h0.018c0.594,0.108,1.152,0.271,1.674,0.522c0.486,0.216,0.973,0.559,1.279,1.062
		c0.216,0.36,0.342,0.774,0.342,1.188c0,0.882-0.486,1.62-1.135,2.088c-0.648,0.45-1.458,0.721-2.34,0.721
		c-1.404-0.018-2.484-0.666-3.205-1.242C630.096,135.769,630.042,135.156,630.365,134.76z"/>
</g>
<path fill="#2B555E" d="M373.8,165.885c-2.089-2.697-3.268-6.33-5.015-9.326c-1.316-2.256-2.265-4.674-3.48-7.16
	c-2.612-5.322-5.057-10.553-6.315-16.762c-0.17-0.842,0.13-1.668,0.256-2.24c1.062-4.856,3.109-7.754,5.506-11.162
	c0.875-1.452,1.748-2.905,2.623-4.358c1.818-2.404,3.643-4.809,5.459-7.209c0.42-0.398,0.836-0.795,1.253-1.193
	c1.612-2.113,3.081-4.287,4.938-6.15c3.098-2.651,6.195-5.303,9.296-7.953c1.153-0.799,2.661-1.615,3.496-2.721
	c1.35-1.784,0.686-4.424,1.023-6.523c0.339-2.615,0.681-5.229,1.019-7.845c0.333-2.087-0.382-3.996,0.103-5.599
	c0.509-1.675,0.838-4.614-1.148-4.869c-0.842-1.815-0.396-3.466-3.132-3.406c-0.609,0.346-1.374,0.59-1.781,1.127
	c-0.372,0.596-0.744,1.191-1.117,1.784c-0.063,0.177-0.13,0.353-0.193,0.527c-0.811-5.84-4.669-2.185-6.023,0.759
	c-0.954,2.068-0.588,5.951-0.816,8.237c-0.186,1.804-1.363,4.066-1.955,5.938c-0.449,1.409-0.418,3.297-1.173,4.485
	c-0.646,1.023-1.749,1.56-2.438,2.514c-0.469,0.655-1.79,2.985-2.43,3.239c-0.029-1.272-0.382-2.182-0.153-3.424
	c0.645-3.465,1.709-7.064,2.858-10.225c0.485-1.32,0.588-3.031-0.746-3.551c-1.836-0.721-3.41,1.202-4.027,2.062
	c-0.883,1.236-1.771,2.541-2.362,4.096c-0.26,1.012-0.521,2.022-0.777,3.035c-0.394,0.834-0.787,1.672-1.182,2.508
	c-0.174,0.461-0.347,0.924-0.521,1.386c-0.461,0.41-2.282,0.603-2.909,1.002c-1.654,1.054-3.23,2.825-4.48,4.306
	c-2.8,3.33-4.003,8.285-7.226,11.367c-5.572,5.33-11.986,8.168-14.48,16.74c-0.334,1.137-0.223,2.552-0.246,3.955
	c-0.021,1.225-0.24,2.717,0.021,4.016c0.487,2.418,1.661,4.552,2.552,6.707c0.115,0.613,0.228,1.227,0.342,1.84
	c0.361,1.271,0.979,2.648,1.412,3.814c0.673,2.149,1.347,4.297,2.021,6.445c1.623,4.76,3.316,9.686,4.58,14.86
	c1.453,5.979,2.564,13.293,3.669,18.094c1.105,4.802,9.032,13.571,19.526,12.668c8.085-0.692,11.793-6.759,10.557-12.562
	C379.272,174.922,374.158,166.35,373.8,165.885z M257.202,69.738c4.391,0.383,4.188,5.647,4.949,9.723
	c0.024,0.657,0.05,1.318,0.075,1.975c0.359,0.484,0.715,0.963,1.069,1.443c0.628,1.579,1.253,3.154,1.878,4.732
	c0.357,0.702,0.715,1.402,1.071,2.102c0.065,0,0.132,0,0.198,0c0-0.021,0-0.043,0-0.066c-0.941-2.129-1.904-4.801-2.421-7.166
	c-0.097-1.82-0.196-3.644-0.293-5.465c-0.228-0.812-0.45-1.621-0.676-2.434c-0.463-2.205-0.061-4.836,2.628-4.229
	c3.839,0.865,4.514,7.993,5.559,11.957c0.331,1.251,4.487,8.32,5.346,8.93c1.481,0.959,2.969,1.918,4.449,2.877
	c2.206,1.545,2.48,3.388,6.24,2.404c-0.492-0.92-0.983-1.84-1.472-2.76c-0.271-0.987-0.54-1.974-0.81-2.959
	c-0.072-1.032-0.145-2.064-0.217-3.096c-0.252-0.855-0.668-1.441-1.004-2.17c-0.572-1.234-0.764-2.958-1.08-4.209
	c-0.501-1.955-1.963-5.497,0.565-6.061c2.337-0.527,3.74,2.385,4.586,3.729c0.995,1.574,1.442,3.534,2.15,5.457
	c0.956,2.593,2.266,5.418,3.22,8.215c0.434,1.264,0.9,3.254,1.613,4.271c0.44,0.309,0.887,0.612,1.328,0.918
	c3.086,2.512,6.776,4.191,10.231,6.403c4.522,2.889,9.782,8.521,12.654,13.104c2.741,4.379,1.961,10.56,0.745,15.936
	c-0.146,1.538-0.295,3.077-0.44,4.612c-0.989,4.876-2.773,9.317-4.23,14.187c-0.388,1.979-0.772,3.954-1.161,5.934
	c-0.561,2.438-1.122,4.882-1.685,7.318c-0.899,4.64-1.808,9.277-2.707,13.914c-1.105,5.9-8.452,12.846-17.958,12.135
	c-8.27-0.621-15.438-6.16-13.564-11.971c0-0.066,3.749-9.641,6.15-14.062c1.51-2.773,3.019-5.549,4.525-8.321
	c1.438-3.586,2.875-7.174,4.315-10.762c1.083-2.794,2.233-5.388,3.2-8.38c0.185-0.564,0.841-2.607,0.648-2.967
	c-0.448-0.983-2.75-6.063-2.42-6.838c-2.193-2.074-4.377-4.396-6.854-6.154c-1.527-1.066-3.058-2.137-4.587-3.205
	c-2.661-2.104-5.198-4.33-7.979-6.347c-0.8-0.58-1.458-1.572-2.131-2.295c-1.531-1.636-3.227-3.254-4.93-4.717
	c-2.014-1.568-4.032-3.139-6.049-4.711c-1.333-0.973-3.035-1.535-4.052-2.811c-0.384-0.944-0.763-1.885-1.144-2.826
	c-0.484-1.354-0.59-2.646-1.08-3.879c-1.431-3.613-3.356-7.199-2.91-11.776c0.14-1.44-1.099-4.44-0.03-5.729
	c0.554-0.664,1.381-0.544,2.248-0.935C254.933,70.609,255.742,70.385,257.202,69.738z M271.031,92.982
	c-0.074,0.187-0.056,0.097-0.063,0.264c0.019,0,0.041,0,0.064,0c0.04-0.088,0.089-0.176,0.132-0.264
	C271.121,92.982,271.072,92.982,271.031,92.982z M271.165,93.312c0.001,0.063,0.001,0.131,0.001,0.198
	c0.043-0.001,0.088-0.001,0.133-0.001C271.254,93.442,271.209,93.375,271.165,93.312z"/>
<g>
	<path fill="#2B555E" d="M325.312,17.27c0,0,25.018,25.09,21.344,52.973C345.157,81.615,337.503,91,326.213,91
		s-21.572-8.473-21.572-19.938C304.641,71.062,300.625,45.5,325.312,17.27z"/>
</g>
<path fill="#F0F6FC" d="M315.834,36.167c0,0-26.5,37.667,9.291,49.583c0,0,34.396-0.813,0.188-68.48L315.834,36.167z"/>
<path fill="#70ABAE" d="M325.312,17.27c0,0,17.187,25.564,17.354,42.397c0,0-2.198,35.583-22.279,24.193
	C320.387,83.86,350.021,68.437,325.312,17.27z"/>
<path fill="#70ABAE" d="M310.732,45.117l14.579-27.848C325.312,17.27,319.917,42.875,310.732,45.117z"/>
<ellipse fill="#F0F6FC" cx="337.428" cy="72.004" rx="1.511" ry="2.662"/>
<path fill="#F0F6FC" d="M314.97,87.58c-0.688,0.57-2.873-1.367-4.157-2.917c-1.283-1.551-1.767-3.27-1.077-3.84
	c0.688-0.57,2.286,0.225,3.57,1.775C314.589,84.149,315.659,87.01,314.97,87.58z"/>
</svg>
